<svg width="277.000000" height="266.000000" viewBox="0 0 277 266" fill="none" xmlns="http://www.w3.org/2000/svg" xmlns:xlink="http://www.w3.org/1999/xlink">
	<desc>
			Created with Pixso.
	</desc>
	<defs>
		<filter id="filter_1_10_dd" x="-0.764160" y="-0.841797" width="277.055420" height="266.575745" filterUnits="userSpaceOnUse" color-interpolation-filters="sRGB">
			<feFlood flood-opacity="0" result="BackgroundImageFix"/>
			<feGaussianBlur in="BackgroundImage" stdDeviation="13.3333"/>
			<feComposite in2="SourceAlpha" operator="in" result="effect_backgroundBlur_1"/>
			<feBlend mode="normal" in="SourceGraphic" in2="effect_backgroundBlur_1" result="shape"/>
		</filter>
	</defs>
	<g filter="url(#filter_1_10_dd)">
		<path id="Vector 2009" d="M3.92 162.13C-4.33 154.75 -5.98 128.32 53.45 81.63C76.04 63.88 83.84 52.14 82.23 21.93C80.96 -1.9 156.65 -22.88 245.54 50.1C281.45 79.84 293.29 152.87 236.46 193.44C137.87 263.8 74.87 287.57 42.74 241.96C29.71 223.46 41.53 202.51 31.36 181.58C28.24 175.16 16.24 173.15 3.92 162.13Z" fill="#FFFFFF" fill-opacity="0" fill-rule="nonzero"/>
		<path id="Vector 2009" d="M53.45 81.63C76.04 63.88 83.84 52.14 82.23 21.93C80.96 -1.9 156.65 -22.88 245.54 50.1C281.45 79.84 293.29 152.87 236.46 193.44C137.87 263.8 74.87 287.57 42.74 241.96C29.71 223.46 41.53 202.51 31.36 181.58C28.24 175.16 16.24 173.15 3.92 162.13C-4.33 154.75 -5.98 128.32 53.45 81.63Z" stroke="#FAFAFA" stroke-opacity="1.000000" stroke-width="1.000000"/>
	</g>
</svg>
