<svg width="252.000000" height="242.000000" viewBox="0 0 252 242" fill="none" xmlns="http://www.w3.org/2000/svg" xmlns:xlink="http://www.w3.org/1999/xlink">
	<desc>
			Created with Pixso.
	</desc>
	<defs>
		<filter id="filter_1_11_dd" x="-0.586304" y="-0.252380" width="252.317383" height="242.238281" filterUnits="userSpaceOnUse" color-interpolation-filters="sRGB">
			<feFlood flood-opacity="0" result="BackgroundImageFix"/>
			<feGaussianBlur in="BackgroundImage" stdDeviation="13.3333"/>
			<feComposite in2="SourceAlpha" operator="in" result="effect_backgroundBlur_1"/>
			<feBlend mode="normal" in="SourceGraphic" in2="effect_backgroundBlur_1" result="shape"/>
		</filter>
	</defs>
	<g filter="url(#filter_1_11_dd)">
		<path id="Vector 2013" d="M3.72 147.83C-3.79 141.13 -5.29 117.12 48.81 74.71C69.38 58.59 76.48 47.92 75.01 20.48C73.86 -1.17 142.77 -20.23 223.69 46.07C256.39 73.08 267.16 139.42 215.42 176.27C125.67 240.19 68.31 261.78 39.06 220.34C27.2 203.54 37.97 184.51 28.7 165.5C25.86 159.66 14.94 157.84 3.72 147.83Z" fill="#FFFFFF" fill-opacity="0" fill-rule="nonzero"/>
		<path id="Vector 2013" d="M48.81 74.71C69.38 58.59 76.48 47.92 75.01 20.48C73.86 -1.17 142.77 -20.23 223.69 46.07C256.39 73.08 267.16 139.42 215.42 176.27C125.67 240.19 68.31 261.78 39.06 220.34C27.2 203.54 37.97 184.51 28.7 165.5C25.86 159.66 14.94 157.84 3.72 147.83C-3.79 141.13 -5.29 117.12 48.81 74.71Z" stroke="#FAFAFA" stroke-opacity="1.000000" stroke-width="1.000000"/>
	</g>
</svg>
