<svg width="310.000000" height="296.000000" viewBox="0 0 310 296" fill="none" xmlns="http://www.w3.org/2000/svg" xmlns:xlink="http://www.w3.org/1999/xlink">
	<desc>
			Created with Pixso.
	</desc>
	<defs>
		<filter id="filter_1_13_dd" x="-0.369141" y="-0.371155" width="310.265137" height="295.622711" filterUnits="userSpaceOnUse" color-interpolation-filters="sRGB">
			<feFlood flood-opacity="0" result="BackgroundImageFix"/>
			<feGaussianBlur in="BackgroundImage" stdDeviation="13.3333"/>
			<feComposite in2="SourceAlpha" operator="in" result="effect_backgroundBlur_1"/>
			<feBlend mode="normal" in="SourceGraphic" in2="effect_backgroundBlur_1" result="shape"/>
		</filter>
	</defs>
	<g filter="url(#filter_1_13_dd)">
		<path id="Vector 2010" d="M4.82 180.37C-4.43 172.19 -6.28 142.86 60.31 91.07C85.62 71.38 94.35 58.35 92.55 24.83C91.12 -1.6 175.93 -24.88 275.5 56.09C315.74 89.08 329 170.1 265.33 215.1C154.88 293.17 84.3 319.54 48.31 268.93C33.71 248.41 46.96 225.17 35.56 201.95C32.06 194.82 18.63 192.59 4.82 180.37Z" fill="#FFFFFF" fill-opacity="0" fill-rule="nonzero"/>
		<path id="Vector 2010" d="M60.31 91.07C85.62 71.38 94.35 58.35 92.55 24.83C91.12 -1.6 175.93 -24.88 275.5 56.09C315.74 89.08 329 170.1 265.33 215.1C154.88 293.17 84.3 319.54 48.31 268.93C33.71 248.41 46.96 225.17 35.56 201.95C32.06 194.82 18.63 192.59 4.82 180.37C-4.43 172.19 -6.28 142.86 60.31 91.07Z" stroke="#FAFAFA" stroke-opacity="1.000000" stroke-width="1.000000"/>
	</g>
</svg>
